<?xml version="1.0" standalone="no"?>
<!DOCTYPE svg PUBLIC "-//W3C//DTD SVG 20010904//EN"
 "http://www.w3.org/TR/2001/REC-SVG-20010904/DTD/svg10.dtd">
<svg version="1.0" xmlns="http://www.w3.org/2000/svg"
 width="16.000000pt" height="16.000000pt" viewBox="0 0 16.000000 16.000000"
 preserveAspectRatio="xMidYMid meet">
<metadata>
Created by potrace 1.11, written by Peter Selinger 2001-2013
</metadata>
<g transform="translate(0.000000,16.000000) scale(0.005714,-0.005714)"
fill="#000000" stroke="none">
<path d="M0 1400 l0 -1400 1400 0 1400 0 0 1400 0 1400 -1400 0 -1400 0 0
-1400z m1606 1026 c326 -69 616 -303 744 -600 l19 -46 -974 0 -974 0 19 46
c131 303 445 551 765 603 39 6 81 13 95 15 46 8 235 -3 306 -18z m-64 -718
c70 -32 133 -96 167 -168 37 -79 37 -201 0 -280 -34 -72 -97 -136 -167 -168
-82 -39 -202 -39 -284 0 -70 32 -133 96 -167 168 -35 74 -37 201 -4 272 82
179 280 256 455 176z m803 -734 c-130 -294 -409 -516 -739 -591 -96 -22 -326
-22 -422 0 -330 75 -609 297 -739 591 l-25 56 975 0 975 0 -25 -56z"/>
<path d="M1342 1574 c-49 -34 -68 -125 -37 -183 12 -25 67 -61 92 -61 4 0 21
7 37 15 l29 15 -7 -31 c-8 -42 -23 -59 -52 -59 -14 0 -25 8 -29 21 -5 15 -12
19 -28 15 -12 -3 -30 -6 -39 -6 -15 0 -15 -4 -6 -30 35 -101 172 -90 220 17
17 38 20 61 16 127 -5 93 -24 138 -68 161 -38 19 -100 19 -128 -1z m90 -61
c26 -24 25 -99 -2 -113 -55 -29 -92 62 -48 118 14 16 28 15 50 -5z"/>
</g>
</svg>
